PathFileType	4	(x/y/z)	A01_PREF_T0015.trc
DataRate	CameraRate	NumFrames	NumMarkers	Units	OrigDataRate	OrigDataStartFrame	OrigNumFrames
240	240	5	48	mm	240	116	309
Frame#	Time	TOP_HEAD			R_AC			L_AC			R_ASIS			L_ASIS			R_PSIS			L_PSIS			SACRAL			L_IC			R_IC			L_GT			R_GT			R_LAT_KNEE			R_MED_KNEE			L_MED_KNEE			L_LAT_KNEE			R_TOE			L_TOE			R_1ST_MET			L_1ST_MET			L_5TH_MET			R_5TH_MET			R_LAT_ANK			R_MED_ANK			L_MED_ANK			L_LAT_ANK			L_HEEL_SUP			R_HEEL_SUP			L_HEEL_LAT			R_HEEL_LAT			L_HEEL_MED			R_HEEL_MED			R_LL_PROX_POST			R_LL_PROX_ANT			R_LL_DIST_ANT			R_LL_DIST_POST			R_THIGH_PROX_POST			R_THIGH_PROX_ANT			R_THIGH_DIST_ANT			R_THIGH_DIST_POST			L_PROS_PROX_ANT			L_PROS_PROX_POST			L_PROS_DIST_POST			L_PROS_DIST_ANT			L_THIGH_PROX_ANT			L_THIGH_PROX_POST			L_THIGH_DIST_POST			L_THIGH_DIST_ANT			
		X1	Y1	Z1	X2	Y2	Z2	X3	Y3	Z3	X4	Y4	Z4	X5	Y5	Z5	X6	Y6	Z6	X7	Y7	Z7	X8	Y8	Z8	X9	Y9	Z9	X10	Y10	Z10	X11	Y11	Z11	X12	Y12	Z12	X13	Y13	Z13	X14	Y14	Z14	X15	Y15	Z15	X16	Y16	Z16	X17	Y17	Z17	X18	Y18	Z18	X19	Y19	Z19	X20	Y20	Z20	X21	Y21	Z21	X22	Y22	Z22	X23	Y23	Z23	X24	Y24	Z24	X25	Y25	Z25	X26	Y26	Z26	X27	Y27	Z27	X28	Y28	Z28	X29	Y29	Z29	X30	Y30	Z30	X31	Y31	Z31	X32	Y32	Z32	X33	Y33	Z33	X34	Y34	Z34	X35	Y35	Z35	X36	Y36	Z36	X37	Y37	Z37	X38	Y38	Z38	X39	Y39	Z39	X40	Y40	Z40	X41	Y41	Z41	X42	Y42	Z42	X43	Y43	Z43	X44	Y44	Z44	X45	Y45	Z45	X46	Y46	Z46	X47	Y47	Z47	X48	Y48	Z48	

116	0.48072	-76.635	1813.4	334.36	-253.72	1570.4	527.46	-255.36	1558	67.098	-258.18	1106.9	517.92	-233.7	1034.6	171.51	-463.11	1091	386.83	-449.91	1099.2	254.42	-472.03	1064.8	319.1	-255.51	1154.3	125.15	-294	1210.3	519.56	-301.27	955.88	132.15	-303.84	996.33	563.96	-163.9	607.26	529.8	-112.37	605.21	405.25	-313.18	558.73	364.52	-328.91	566.11	207.33	-47.227	93.203	464.8	-250.81	78.273	275.76	-124.88	81.653	407.04	-333.81	56.185	328.64	-360.87	47.83	201.43	-169.9	75.879	533.01	-277.56	154.71	493.97	-251.28	162.36	395.2	-444.69	139.74	308.76	-475.94	135.59	241.13	-571.72	91.635	279.21	-367.11	129.33	421.96	-563.26	62.082	247.93	-367.63	105.77	457.49	-553.99	60.798	311.83	-357.13	101.87	397.83	-287.34	456.62	511.93	-226.46	434.38	545.5	-235.43	360.22	530.1	-285.74	373.31	507.76	-285.73	848.6	553.15	-232.17	893.31	557.99	-193.67	810.64	557.31	-245.65	768.61	550	-301.79	475.87	222.56	-355.33	487.28	209.99	-374.97	428.1	219.13	-321.62	423.89	229.79	-250.7	811.33	175.22	-319.6	821.98	156.84	-315.22	746.74	171.8	-251.42	738.11	188.26
117	0.4849	-71.648	1813.1	335.33	-248.47	1570.1	527.75	-249.89	1558.1	67.412	-253.07	1106.6	518.07	-228.97	1034.2	171.63	-458.11	1090.8	387.15	-445.01	1099	254.74	-467.14	1064.6	319.41	-250.59	1154.1	125.35	-289.02	1209.9	519.81	-296.81	955.64	132.27	-298.62	995.98	564.2	-157.86	607.03	529.11	-106.65	605.46	404.6	-310.97	558.5	364.65	-326.64	565.94	207.44	-29.267	95.664	465.88	-250.64	78.131	275.74	-106.48	82.001	408	-333.65	56.201	328.64	-360.78	47.89	201.45	-151.68	75.583	533.87	-261.1	151.46	494.31	-234.82	159.53	395.56	-444.24	140.07	308.81	-475.48	136.06	241.14	-571.48	92.193	279.2	-349.97	123.67	422.19	-563.12	62.609	247.93	-349.99	100.22	457.83	-553.83	61.328	311.82	-339.16	96.386	398.22	-278.26	453.44	511.23	-216.96	432.72	545.07	-224.25	358.33	529.89	-274.62	370.11	507.26	-280.21	848.21	552.97	-226.78	892.99	558	-188.03	810.41	556.97	-240.03	768.3	549.52	-299.87	475.6	222.65	-353.36	487.23	210.08	-373.26	428.15	219.19	-319.92	423.69	229.87	-247.02	810.94	175.36	-315.86	821.88	156.97	-311.83	746.63	171.92	-248.09	737.68	188.4
118	0.48908	-66.645	1812.7	336.31	-243.2	1569.7	528.04	-244.43	1558.1	67.738	-247.93	1106.2	518.22	-224.23	1033.8	171.75	-453.08	1090.5	387.48	-440.09	1098.8	255.08	-462.22	1064.4	319.74	-245.69	1153.9	125.55	-284	1209.5	520.05	-292.35	955.39	132.37	-293.38	995.58	564.44	-151.91	606.72	528.41	-101.02	605.59	403.93	-308.74	558.24	364.77	-324.36	565.74	207.54	-11.463	98.303	466.94	-250.47	77.991	275.72	-88.186	82.55	408.96	-333.5	56.214	328.64	-360.69	47.951	201.46	-133.55	75.494	534.73	-244.66	148.4	494.66	-218.38	156.88	395.93	-443.79	140.39	308.86	-475.02	136.53	241.15	-571.24	92.758	279.2	-332.79	118.21	422.46	-562.97	63.142	247.93	-332.31	94.89	458.2	-553.68	61.865	311.82	-321.15	91.122	398.64	-269.17	450.22	510.57	-207.49	431.04	544.65	-213.09	356.47	529.69	-263.49	366.93	506.8	-274.74	847.75	552.79	-221.41	892.59	558	-182.46	810.07	556.62	-234.48	767.91	549.02	-297.94	475.3	222.72	-351.37	487.17	210.16	-371.54	428.18	219.25	-318.21	423.48	229.94	-243.33	810.53	175.49	-312.1	821.77	157.1	-308.42	746.49	172.04	-244.76	737.23	188.53
119	0.49326	-61.626	1812.3	337.3	-237.9	1569.3	528.35	-238.96	1558.1	68.077	-242.75	1105.8	518.38	-219.5	1033.4	171.87	-448.04	1090.2	387.84	-435.17	1098.6	255.44	-457.3	1064.1	320.09	-240.81	1153.7	125.75	-278.94	1209	520.31	-287.89	955.1	132.48	-288.12	995.12	564.68	-146.05	606.31	527.71	-95.47	605.63	403.24	-306.5	557.98	364.89	-322.07	565.53	207.65	6.1749	101.12	467.97	-250.3	77.851	275.71	-70.013	83.303	409.9	-333.35	56.225	328.65	-360.61	48.014	201.47	-115.52	75.612	535.59	-228.24	145.51	495.03	-201.98	154.42	396.32	-443.33	140.72	308.9	-474.56	136.99	241.15	-571	93.327	279.19	-315.56	112.96	422.75	-562.82	63.681	247.93	-314.58	89.785	458.6	-553.53	62.408	311.81	-303.13	86.091	399.09	-260.08	446.99	509.97	-198.04	429.34	544.24	-201.95	354.63	529.5	-252.38	363.78	506.38	-269.32	847.22	552.6	-216.07	892.09	558.01	-176.94	809.63	556.28	-229	767.43	548.52	-296	475	222.8	-349.38	487.1	210.24	-369.81	428.2	219.31	-316.5	423.26	230.01	-239.63	810.09	175.62	-308.32	821.62	157.23	-304.99	746.33	172.16	-241.41	736.77	188.66
120	0.49744	-56.591	1811.9	338.3	-232.59	1568.8	528.67	-233.49	1558	68.43	-237.52	1105.3	518.55	-214.76	1032.9	171.99	-442.97	1089.8	388.21	-430.23	1098.4	255.81	-452.36	1063.9	320.47	-235.95	1153.4	125.96	-273.83	1208.5	520.56	-283.44	954.79	132.58	-282.85	994.61	564.94	-140.27	605.81	527.01	-90.008	605.56	402.52	-304.24	557.69	365	-319.76	565.3	207.75	23.639	104.11	468.97	-250.13	77.711	275.69	-51.973	84.26	410.82	-333.21	56.234	328.65	-360.52	48.076	201.47	-97.588	75.935	536.45	-211.86	142.82	495.43	-185.62	152.14	396.71	-442.87	141.04	308.93	-474.1	137.46	241.15	-570.76	93.902	279.17	-298.3	107.94	423.07	-562.67	64.224	247.92	-296.82	84.913	459.03	-553.38	62.957	311.8	-285.09	81.3	399.58	-250.98	443.75	509.42	-188.61	427.64	543.86	-190.85	352.83	529.34	-241.3	360.68	506	-263.94	846.63	552.41	-210.75	891.51	558.02	-171.48	809.09	555.93	-223.6	766.88	548.02	-294.06	474.68	222.86	-347.38	487.01	210.31	-368.08	428.21	219.37	-314.78	423.03	230.07	-235.93	809.63	175.75	-304.54	821.45	157.36	-301.54	746.14	172.28	-238.07	736.28	188.78
